<?xml version="1.0" encoding="UTF-8" standalone="no"?><!DOCTYPE svg PUBLIC "-//W3C//DTD SVG 1.1//EN" "http://www.w3.org/Graphics/SVG/1.1/DTD/svg11.dtd"><svg width="2859px" height="908px" version="1.1" xmlns="http://www.w3.org/2000/svg" xmlns:xlink="http://www.w3.org/1999/xlink" xml:space="preserve" xmlns:serif="http://www.serif.com/" style="fill-rule:evenodd;clip-rule:evenodd;stroke-linejoin:round;stroke-miterlimit:2;"><g transform="matrix(1,0,0,1,-4898.53,-115.671)"><g id="Artboard1" transform="matrix(1,0,0,0.796777,4455.32,-651.513)"><rect x="443.206" y="962.858" width="2858.42" height="1138.37" style="fill:none;"/><clipPath id="_clip1"><rect x="443.206" y="962.858" width="2858.42" height="1138.37"/></clipPath><g clip-path="url(#_clip1)"><g transform="matrix(1.24794,0,0,1.56624,-378.568,-809.062)"><g transform="matrix(0.711132,0,0,0.711132,190.367,332.848)"><g transform="matrix(0.548641,0,0,0.548641,-167.955,512.732)"><path d="M3282.79,1257.33L3282.79,1257.37C3277.61,1373.13 3261.27,1548.17 3213.17,1738.76C3178.3,1717.36 3142.12,1697.27 3104.91,1678.99C3101.8,1677.56 3098.56,1676.39 3095.32,1675.49C3091.69,1674.06 3087.93,1672.76 3084.17,1671.47C2970.6,1633.87 2850.54,1691.17 2752.4,1786.6C2652.31,1883.83 2563.24,2030.85 2505.94,2204.06C2448.63,2377.13 2432.3,2548.26 2454.6,2686.08C2455.51,2691.65 2456.54,2697.23 2457.58,2702.8C2419.33,2719.79 2380.7,2735.09 2341.93,2748.96L2241.45,2781.5C1989.94,2854.88 1746.86,2869.14 1599.06,2869.27C1544.74,2869.4 1503.64,2826.48 1506.1,2772.16C1518.15,2502.09 1590.87,1926.18 1965.95,1567.2C2341.03,1208.06 2919.51,1160.61 3189.83,1160.22C3244.28,1160.22 3285.25,1203.01 3282.79,1257.33Z" style="fill:rgb(255,113,0);"/></g><g transform="matrix(0.548641,0,0,0.548641,-167.955,512.732)"><path d="M3267.62,1896.38C3554.4,2112.76 3745.89,2425.46 3832.75,2589.35C3854.92,2631.23 3842.99,2678.03 3806.3,2702.02C3659.41,2798.22 3343.07,2958.85 2912.36,2920.99C2937.12,2903.62 2961.24,2883.53 2984.05,2861.36C3084.14,2763.99 3173.21,2616.97 3230.52,2443.89C3287.82,2270.81 3304.03,2099.55 3281.86,1961.87C3278.23,1939.44 3273.43,1917.54 3267.6,1896.4L3267.62,1896.38ZM2821.73,1858.01L2821.73,1858.04C2910.15,1772.08 2992.47,1746.02 3052.89,1766.12C3113.31,1786.08 3163.87,1856.09 3183.45,1977.7C3202.76,2096.7 3189.41,2251.5 3135.99,2412.66C3082.71,2573.68 3001.03,2705.92 2914.68,2789.93C2826.27,2875.88 2743.94,2901.81 2683.52,2881.85C2623.11,2861.88 2572.54,2791.87 2552.84,2670.13C2533.65,2551.1 2547,2396.43 2600.42,2235.28C2653.7,2074.13 2735.25,1942.02 2821.73,1858.01Z" style="fill:rgb(215,119,113);"/></g></g><g transform="matrix(1.37605,0,0,1.37605,-895.571,-572.328)"><path d="M2663.43,1752.59C2632.78,1752.59 2606.19,1744.13 2583.65,1727.23C2561.11,1710.33 2543.87,1688.36 2531.93,1661.31C2519.99,1634.27 2514.01,1605.42 2514.01,1574.77C2514.01,1545.47 2519.31,1518.32 2529.9,1493.3C2540.49,1468.29 2556.04,1448.34 2576.55,1433.47C2597.06,1418.59 2621.51,1411.16 2649.91,1411.16C2688.67,1411.16 2721.57,1426.71 2748.62,1457.81C2763.04,1474.93 2774.2,1496.01 2782.08,1521.02C2789.97,1546.04 2793.92,1571.39 2793.92,1597.08C2793.92,1625.03 2788.85,1650.83 2778.7,1674.5C2768.56,1698.16 2753.69,1717.09 2734.08,1731.29C2714.47,1745.49 2690.92,1752.59 2663.43,1752.59ZM2639.77,1540.97C2641.57,1553.59 2643.6,1568.57 2645.85,1585.93C2648.11,1603.28 2649.68,1618.72 2650.58,1632.24C2651.03,1636.75 2652.39,1640.24 2654.64,1642.72C2656.89,1645.2 2659.6,1646.44 2662.75,1646.44C2666.36,1646.44 2669.4,1644.97 2671.88,1642.04C2674.36,1639.11 2675.37,1635.17 2674.92,1630.21C2671.32,1594.15 2667.71,1563.73 2664.11,1538.94C2663.66,1533.98 2662.19,1530.04 2659.71,1527.11C2657.23,1524.18 2654.41,1522.71 2651.26,1522.71C2648.11,1522.71 2645.29,1524.4 2642.81,1527.78C2640.33,1531.16 2639.32,1535.56 2639.77,1540.97Z" style="fill:rgb(215,119,113);fill-rule:nonzero;"/></g><g transform="matrix(1.33924,0,0,1.33924,-801.653,-516.995)"><path d="M2255.74,1750.56L2186.78,1749.2C2181.82,1749.2 2177.99,1747.63 2175.29,1744.47C2172.59,1741.32 2171.46,1736.58 2171.91,1730.27C2174.16,1713.15 2176.98,1685.65 2180.36,1647.79C2183.74,1609.93 2185.43,1586.04 2185.43,1576.12C2185.43,1572.07 2183.85,1570.04 2180.7,1570.04C2177.99,1570.04 2176.19,1571.39 2175.29,1574.1C2171.68,1582.21 2166.72,1601.25 2160.41,1631.23C2154.11,1661.2 2150.27,1679.12 2148.92,1684.98C2141.26,1721.03 2137.43,1738.61 2137.43,1737.71C2135.62,1745.37 2130.89,1749.2 2123.23,1749.2L1990.72,1750.56C1986.66,1750.56 1983.16,1749.43 1980.24,1747.18C1977.31,1744.92 1975.84,1741.77 1975.84,1737.71C1975.84,1712.92 1971.11,1668.75 1961.64,1605.2C1952.18,1541.64 1944.06,1497.92 1937.3,1474.03C1936.4,1470.43 1937.42,1466.82 1940.35,1463.22C1943.28,1459.61 1946.99,1457.58 1951.5,1457.13L1988.69,1451.72L2057.65,1442.93L2059,1442.93C2063.06,1442.93 2066.66,1444.06 2069.82,1446.31C2072.97,1448.57 2074.78,1451.5 2075.23,1455.1L2077.93,1489.58C2077.93,1491.39 2078.83,1492.29 2080.64,1492.29C2082.44,1492.29 2083.79,1491.61 2084.69,1490.26C2101.82,1469.53 2120.41,1452.85 2140.47,1440.23C2160.53,1427.61 2179.35,1421.3 2196.92,1421.3C2226.67,1421.3 2255.07,1440.23 2282.11,1478.09C2284.37,1480.8 2286.39,1482.15 2288.2,1482.15C2290.45,1482.15 2292.93,1480.8 2295.63,1478.09C2315.01,1458.71 2333.38,1443.16 2350.74,1431.44C2368.09,1419.72 2385.78,1413.86 2403.81,1413.86C2412.37,1413.86 2420.49,1415.44 2428.15,1418.59C2449.33,1427.16 2464.88,1439.33 2474.8,1455.1C2484.72,1470.88 2490.91,1487.56 2493.39,1505.13C2495.87,1522.71 2498.01,1549.76 2499.82,1586.27L2507.25,1746.5L2507.25,1747.18C2507.25,1750.78 2505.67,1753.82 2502.52,1756.3C2499.36,1758.78 2495.98,1759.8 2492.38,1759.35L2454.52,1757.32C2405.39,1755.06 2378.12,1753.71 2372.71,1753.26C2369.1,1753.26 2365.95,1751.91 2363.24,1749.2C2360.54,1746.5 2359.19,1743.12 2359.19,1739.06L2359.19,1705.93C2359.19,1646.44 2358.28,1605.2 2356.48,1582.21C2356.48,1579.95 2355.81,1578.27 2354.45,1577.14C2353.1,1576.01 2351.75,1575.45 2350.4,1575.45C2348.6,1575.45 2347.02,1576.12 2345.66,1577.48C2344.31,1578.83 2343.64,1580.63 2343.64,1582.88C2342.28,1595.96 2340.71,1633.82 2338.9,1696.47C2338.45,1703.68 2338.23,1710.78 2338.23,1717.77C2338.23,1724.75 2338,1731.4 2337.55,1737.71C2337.55,1741.77 2335.97,1745.04 2332.82,1747.51C2329.66,1749.99 2325.83,1751.23 2321.33,1751.23L2255.74,1750.56Z" style="fill:rgb(215,119,113);fill-rule:nonzero;"/></g><g transform="matrix(1.33924,0,0,1.33924,-807.453,-508.707)"><path d="M1863.61,1751.91C1860.9,1752.81 1859.1,1753.26 1858.2,1753.26C1855.95,1753.26 1853.58,1752.47 1851.1,1750.89C1848.62,1749.32 1846.71,1747.4 1845.36,1745.15C1807.94,1672.58 1789.24,1595.73 1789.24,1514.6C1789.24,1492.96 1790.59,1471.1 1793.3,1449.02C1793.75,1445.41 1795.32,1442.26 1798.03,1439.55C1800.73,1436.85 1804.11,1435.5 1808.17,1435.5L1858.2,1437.52L1905.53,1439.55C1909.58,1439.55 1913.08,1441.13 1916.01,1444.29C1918.94,1447.44 1920.18,1451.05 1919.73,1455.1C1917.92,1471.33 1917.02,1489.13 1917.02,1508.51C1917.02,1578.38 1931.89,1641.03 1961.64,1696.47C1963,1698.27 1963.67,1700.53 1963.67,1703.23C1963.67,1709.09 1960.52,1713.37 1954.21,1716.08L1916.35,1730.95C1893.81,1740.41 1876.23,1747.4 1863.61,1751.91ZM1775.72,1325.29C1775.72,1303.21 1783.61,1284.28 1799.38,1268.5C1815.16,1252.73 1834.09,1244.84 1856.17,1244.84C1878.26,1244.84 1897.19,1252.73 1912.96,1268.5C1928.74,1284.28 1936.63,1303.21 1936.63,1325.29C1936.63,1347.38 1928.85,1366.31 1913.3,1382.09C1897.75,1397.86 1878.71,1405.75 1856.17,1405.75C1834.09,1405.75 1815.16,1397.86 1799.38,1382.09C1783.61,1366.31 1775.72,1347.38 1775.72,1325.29Z" style="fill:rgb(215,119,113);fill-rule:nonzero;"/></g></g></g></g></g></svg>