<?xml version="1.0" encoding="UTF-8" standalone="no"?>
<!DOCTYPE svg PUBLIC "-//W3C//DTD SVG 1.1//EN" "http://www.w3.org/Graphics/SVG/1.1/DTD/svg11.dtd">
<svg width="100%" height="100%" viewBox="0 0 3106 1102" version="1.1" xmlns="http://www.w3.org/2000/svg" xmlns:xlink="http://www.w3.org/1999/xlink" xml:space="preserve" xmlns:serif="http://www.serif.com/" style="fill-rule:evenodd;clip-rule:evenodd;stroke-linejoin:round;stroke-miterlimit:2;">
    <rect id="Artboard1" x="0" y="0" width="3105.93" height="1101.06" style="fill:none;"/>
    <g id="o">
        <path id="o1" serif:id="o" d="M2758.1,980.564C2705.47,980.564 2659.8,966.051 2621.1,937.026C2582.4,908 2552.79,870.267 2532.28,823.827C2511.77,777.386 2501.52,727.849 2501.52,675.217C2501.52,624.906 2510.61,578.272 2528.8,535.314C2546.99,492.356 2573.69,458.106 2608.91,432.564C2644.13,407.022 2686.12,394.251 2734.88,394.251C2801.45,394.251 2857.95,420.954 2904.39,474.361C2929.16,503.773 2948.31,539.958 2961.86,582.916C2975.4,625.873 2982.18,669.411 2982.18,713.53C2982.18,761.519 2973.47,805.831 2956.05,846.466C2938.64,887.102 2913.1,919.61 2879.43,943.992C2845.76,968.373 2805.32,980.564 2758.1,980.564ZM2717.47,617.166C2720.56,638.838 2724.04,664.574 2727.91,694.373C2731.78,724.173 2734.49,750.683 2736.04,773.903C2736.82,781.643 2739.14,787.642 2743.01,791.899C2746.88,796.156 2751.52,798.284 2756.94,798.284C2763.13,798.284 2768.36,795.769 2772.61,790.738C2776.87,785.707 2778.61,778.934 2777.84,770.42C2771.64,708.499 2765.45,656.253 2759.26,613.683C2758.49,605.169 2755.97,598.396 2751.72,593.365C2747.46,588.334 2742.62,585.818 2737.2,585.818C2731.78,585.818 2726.95,588.721 2722.69,594.526C2718.43,600.331 2716.69,607.878 2717.47,617.166Z" style="fill:#d77771;fill-rule:nonzero;"/>
    </g>
    <g id="m">
        <path id="m1" serif:id="m" d="M2071.57,965.701L1956.31,963.441C1948.03,963.441 1941.62,960.804 1937.1,955.531C1932.58,950.258 1930.7,942.348 1931.45,931.802C1935.22,903.177 1939.93,857.225 1945.58,793.948C1951.23,730.671 1954.05,690.746 1954.05,674.173C1954.05,667.393 1951.41,664.003 1946.14,664.003C1941.62,664.003 1938.61,666.263 1937.1,670.783C1931.08,684.343 1922.79,716.17 1912.24,766.264C1901.7,816.359 1895.29,846.302 1893.03,856.095C1880.23,916.359 1873.83,945.738 1873.83,944.232C1870.81,957.038 1862.9,963.441 1850.1,963.441L1628.63,965.701C1621.85,965.701 1616.01,963.817 1611.11,960.051C1606.22,956.284 1603.77,951.011 1603.77,944.232C1603.77,902.8 1595.86,828.976 1580.04,722.761C1564.22,616.546 1550.66,543.475 1539.36,503.55C1537.85,497.524 1539.55,491.498 1544.44,485.471C1549.34,479.445 1555.56,476.055 1563.09,475.302L1625.24,466.262L1740.49,451.573L1742.75,451.573C1749.53,451.573 1755.56,453.456 1760.83,457.222C1766.1,460.989 1769.12,465.885 1769.87,471.912L1774.39,529.539C1774.39,532.552 1775.9,534.059 1778.91,534.059C1781.92,534.059 1784.18,532.929 1785.69,530.669C1814.31,496.017 1845.39,468.145 1878.91,447.053C1912.43,425.96 1943.88,415.414 1973.26,415.414C2022.98,415.414 2070.44,447.053 2115.64,510.33C2119.4,514.85 2122.79,517.11 2125.8,517.11C2129.57,517.11 2133.71,514.85 2138.23,510.33C2170.63,477.938 2201.32,451.949 2230.33,432.363C2259.33,412.778 2288.89,402.985 2319.03,402.985C2333.34,402.985 2346.9,405.621 2359.7,410.894C2395.11,425.207 2421.1,445.546 2437.67,471.912C2454.24,498.277 2464.6,526.149 2468.74,555.528C2472.89,584.907 2476.47,630.105 2479.48,691.122L2491.91,958.921L2491.91,960.051C2491.91,966.077 2489.27,971.162 2484,975.305C2478.73,979.448 2473.08,981.143 2467.05,980.39L2403.77,977C2321.66,973.234 2276.09,970.974 2267.05,970.22C2261.02,970.22 2255.75,967.961 2251.23,963.441C2246.71,958.921 2244.45,953.271 2244.45,946.491L2244.45,891.124C2244.45,791.688 2242.94,722.761 2239.93,684.343C2239.93,680.576 2238.8,677.751 2236.54,675.868C2234.28,673.985 2232.02,673.043 2229.76,673.043C2226.75,673.043 2224.11,674.173 2221.85,676.433C2219.59,678.693 2218.46,681.706 2218.46,685.473C2216.2,707.318 2213.56,770.596 2210.55,875.304C2209.8,887.357 2209.42,899.222 2209.42,910.898C2209.42,922.574 2209.04,933.685 2208.29,944.232C2208.29,951.011 2205.65,956.473 2200.38,960.616C2195.11,964.759 2188.7,966.831 2181.17,966.831L2071.57,965.701Z" style="fill:#d77771;fill-rule:nonzero;"/>
    </g>
    <g id="i">
        <path id="i-stem" d="M1408.96,978.304C1404.44,979.811 1401.42,980.564 1399.92,980.564C1396.15,980.564 1392.19,979.246 1388.05,976.609C1383.91,973.972 1380.71,970.771 1378.45,967.004C1315.92,845.723 1284.66,717.285 1284.66,581.691C1284.66,545.532 1286.92,508.997 1291.44,472.086C1292.19,466.059 1294.83,460.786 1299.35,456.266C1303.87,451.746 1309.52,449.486 1316.3,449.486L1399.92,452.876L1479.01,456.266C1485.79,456.266 1491.63,458.903 1496.53,464.176C1501.42,469.449 1503.5,475.475 1502.74,482.255C1499.73,509.374 1498.22,539.129 1498.22,571.521C1498.22,688.283 1523.08,792.992 1572.8,885.648C1575.06,888.661 1576.19,892.428 1576.19,896.947C1576.19,906.74 1570.92,913.897 1560.37,918.416L1497.09,943.275C1459.43,959.095 1430.05,970.771 1408.96,978.304Z" style="fill:#d77771;fill-rule:nonzero;"/>
        <path id="i-dot" d="M1262.06,265.304C1262.06,228.393 1275.25,196.754 1301.61,170.388C1327.98,144.023 1359.62,130.84 1396.53,130.84C1433.44,130.84 1465.08,144.023 1491.44,170.388C1517.81,196.754 1530.99,228.393 1530.99,265.304C1530.99,302.216 1518,333.855 1492.01,360.22C1466.02,386.586 1434.19,399.769 1396.53,399.769C1359.62,399.769 1327.98,386.586 1301.61,360.22C1275.25,333.855 1262.06,302.216 1262.06,265.304Z" style="fill:#d77771;"/>
    </g>
    <g id="eye">
        <path id="eye1" serif:id="eye" d="M981.475,478.926C1121.11,584.281 1214.34,736.533 1256.63,816.331C1267.43,836.72 1261.62,859.508 1243.75,871.186C1172.23,918.024 1018.21,996.236 808.501,977.804C820.558,969.345 832.3,959.561 843.41,948.766C892.142,901.359 935.509,829.776 963.411,745.506C991.312,661.235 999.202,577.847 988.408,510.815C986.641,499.894 984.305,489.227 981.465,478.936L981.475,478.926ZM764.374,460.242L764.374,460.257C807.424,418.406 847.509,405.717 876.925,415.502C906.341,425.224 930.96,459.31 940.492,518.522C949.897,576.463 943.396,651.833 917.388,730.298C891.443,808.697 851.675,873.084 809.634,913.988C766.583,955.84 726.499,968.465 697.083,958.744C667.667,949.022 643.048,914.935 633.453,855.661C624.111,797.705 630.612,722.397 656.62,643.933C682.564,565.471 722.269,501.146 764.374,460.242Z" style="fill:#d77771;"/>
    </g>
    <g id="swoop">
        <path id="swoop1" serif:id="swoop" d="M988.861,167.778L988.863,167.796C986.338,224.162 978.384,309.386 954.965,402.18C937.984,391.763 920.373,381.98 902.256,373.079C900.741,372.385 899.163,371.816 897.584,371.375C895.817,370.68 893.986,370.049 892.156,369.418C836.858,351.112 778.404,379.014 730.619,425.474C681.887,472.816 638.52,544.398 610.618,628.734C582.717,712.998 574.763,796.324 585.62,863.425C586.062,866.139 586.567,868.854 587.072,871.568C568.449,879.837 549.639,887.286 530.764,894.04L481.842,909.884C359.382,945.612 241.028,952.556 169.066,952.619C142.617,952.682 122.605,931.787 123.805,905.338C129.671,773.844 165.077,493.437 347.701,318.65C530.325,143.79 811.985,120.686 943.6,120.497C970.112,120.497 990.06,141.329 988.861,167.778Z" style="fill:#ff7100;"/>
    </g>
</svg>
