<?xml version="1.0" encoding="UTF-8" standalone="no"?>
<!DOCTYPE svg PUBLIC "-//W3C//DTD SVG 1.1//EN" "http://www.w3.org/Graphics/SVG/1.1/DTD/svg11.dtd">
<svg width="100%" height="100%" viewBox="0 0 3864 1803" version="1.1" xmlns="http://www.w3.org/2000/svg" xmlns:xlink="http://www.w3.org/1999/xlink" xml:space="preserve" xmlns:serif="http://www.serif.com/" style="fill-rule:evenodd;clip-rule:evenodd;stroke-linejoin:round;stroke-miterlimit:2;">
    <g transform="matrix(1,0,0,1,-7133.29,-4827.53)">
        <g id="Artboard1" transform="matrix(1.35175,0,0,1.58307,6534.18,3303.26)">
            <rect x="443.206" y="962.858" width="2858.42" height="1138.37" style="fill:none;"/>
            <g transform="matrix(1.22715,0,0,1.37852,-316.639,-438.042)">
                <g transform="matrix(0.602845,0,0,0.458232,-3592.51,-1092.98)">
                    <path d="M9087.76,5548.77C9077.5,5589.23 9047.1,5626.07 8999.17,5643.68C8975.67,5652.38 8946.91,5655.82 8914.6,5652.59C8902.09,5651.34 8871.25,5649 8857.39,5645.51C8851.76,5643.89 8839.15,5625.27 8836.3,5619.89C8843.74,5665.7 8850.7,5710.65 8857.13,5753.68C8858.07,5760.09 8855.05,5764 8848.64,5764.94L8767.67,5774.74C8739.41,5778.87 8727.29,5762.67 8724.35,5742.58L8724.33,5742.38C8717.13,5686.39 8704.39,5598.49 8692.81,5525.59L8652.4,5537.98C8650.78,5538.34 8648.65,5538.55 8647.61,5538.55C8611.69,5538.55 8610.28,5517.87 8608.07,5508.24L8589.07,5430.11L8589.02,5429.93C8588.36,5426.99 8588.21,5424.33 8588.43,5421.96L8589.26,5417.77L8591.08,5413.71L8593.79,5410.19L8597.11,5407.48C8599.11,5406.17 8601.51,5405.09 8604.35,5404.37L8604.4,5404.36C8622.87,5399.74 8645.45,5394.32 8669.95,5388.94C8665.32,5362.7 8660.86,5338.25 8656.12,5316.62C8655.42,5313.51 8655.34,5310.69 8655.68,5308.19L8656.82,5303.8L8659.05,5299.69L8662.2,5296.31L8665.87,5293.89C8668.04,5292.77 8670.62,5291.92 8673.62,5291.48C8673.72,5291.46 8673.83,5291.45 8673.94,5291.44L8753.65,5282.07C8756.46,5281.68 8759,5281.71 8761.28,5282.06L8765.35,5283.13L8769.28,5285.14L8772.66,5288.01L8775.25,5291.45C8776.48,5293.5 8777.48,5295.96 8778.15,5298.89C8779.74,5305.72 8786.87,5323.06 8787.71,5326.78C8790.64,5339.38 8793.3,5352.08 8795.88,5364.84L8825.32,5360.53C8822.45,5343.88 8818.89,5326.2 8814.05,5307.74C8813.14,5304.65 8812.89,5301.79 8813.09,5299.23L8814.01,5294.67L8816.07,5290.37L8819.13,5286.76L8822.83,5284.09C8825.09,5282.82 8827.79,5281.87 8830.92,5281.41C8831.04,5281.4 8831.16,5281.38 8831.29,5281.37L8909.88,5272.42C8912.84,5272.01 8915.51,5272.1 8917.9,5272.57L8922.06,5273.85L8925.91,5276.06C8929.8,5278.93 8932.87,5283.4 8934.32,5289.81C8935.86,5296.63 8942.99,5313.78 8943.86,5317.66C8946.83,5330.8 8949.32,5343.34 8951.49,5355.66C8956.69,5356.38 8961.57,5357.31 8965.95,5358.35L8965.99,5358.35C9033.23,5374.46 9069.84,5417.53 9079.66,5465.33C9080.27,5466.57 9080.85,5467.82 9081.42,5469.08L9084.86,5466.8C9087.03,5465.68 9089.61,5464.83 9092.6,5464.4C9092.7,5464.38 9092.8,5464.37 9092.89,5464.36C9148.24,5457.68 9214.77,5450.55 9285.73,5452.34C9285.85,5452.34 9285.97,5452.34 9286.09,5452.35L9310.69,5453.76C9310.85,5453.77 9311.01,5453.78 9311.17,5453.79C9371.89,5459.86 9413.47,5482.25 9439.13,5511.98C9454.48,5529.77 9464.24,5550.27 9468.93,5571.83C9479.57,5593.93 9483.22,5618.48 9480.78,5642.87C9475.26,5698.1 9438.21,5752.82 9381.11,5776.58C9328.38,5798.67 9260.49,5798.73 9206.24,5793.84C9174.33,5793.84 9170.61,5786.25 9163.83,5762.72C9163.8,5762.62 9145.16,5690.66 9145.16,5690.66C9144.72,5689.04 9144.46,5687.49 9144.36,5686.03L9144.57,5681.1L9146.12,5676.14L9149.15,5671.69L9153.36,5668.4L9158.11,5666.52C9160.78,5665.86 9163.9,5665.68 9167.38,5666.26C9222.55,5673.78 9272.74,5676.35 9306.41,5662.08L9306.42,5662.07C9332.29,5651.14 9349.38,5630.28 9351.48,5609.32C9352.61,5598 9349.14,5587.36 9340.55,5578.68C9331.44,5575.51 9320.76,5573.2 9308.41,5571.96L9286.94,5570.87C9229.57,5570.93 9174.81,5581.77 9133.54,5589.22C9095.68,5594.76 9089.79,5558.26 9089.79,5558.26L9087.76,5548.77ZM8714.94,5518.8C8726.58,5591.87 8739.49,5680.82 8746.85,5737.88L8824.84,5728.44C8812.6,5646.71 8798.48,5558.09 8782.75,5469.84C8781.68,5463.82 8785.52,5458.03 8791.47,5456.66C8839.16,5445.71 8885.91,5439.18 8919.7,5442.56C8933.12,5443.9 8948.64,5447.89 8960.45,5455.54C8963.66,5457.62 8966.62,5459.95 8969.24,5462.54C8977.58,5470.78 8982.59,5481.68 8981.65,5495.82C8981.61,5496.41 8981.56,5497.01 8981.5,5497.62C8979.26,5520.07 8964.99,5533.13 8946.47,5539.83C8930.47,5545.61 8911.14,5546.31 8895.81,5544.77C8881.7,5543.36 8865.9,5539.93 8847.51,5534.75L8856.48,5608.38C8856.49,5608.46 8856.5,5608.55 8856.51,5608.64C8856.56,5609.14 8857.17,5609.02 8857.7,5609.15L8857.39,5609.07C8859.21,5609.53 8861.02,5609.97 8862.82,5610.39C8870.98,5612.3 8878.82,5613.78 8886.45,5614.84C8889.33,5615.24 8892.18,5615.58 8895.02,5615.86C8925.36,5618.9 8952.39,5615.78 8974.46,5607.61L8974.49,5607.6C9025.07,5589.01 9054.55,5547.24 9058.9,5503.77C9059.91,5493.6 9059.55,5483.39 9057.78,5473.4C9053.19,5447.54 9039.14,5423.23 9015.04,5405.22C9000.58,5394.41 8982.5,5385.84 8960.67,5380.64C8958.98,5380.24 8957.21,5379.87 8955.37,5379.51C8949.45,5378.38 8942.78,5377.52 8935.79,5377.19C8934.33,5377.12 8932.94,5376.78 8931.68,5376.22C8928.15,5374.65 8925.55,5371.36 8924.98,5367.35C8923.39,5356.09 8921.68,5344.93 8919.7,5333.59C8918.4,5326.17 8916.99,5318.67 8915.43,5311.01C8914.38,5305.84 8913.26,5300.59 8912.05,5295.24L8836.71,5303.82C8842.61,5326.68 8846.65,5348.33 8849.84,5368.38C8850.32,5371.41 8849.57,5374.5 8847.76,5376.97C8845.94,5379.44 8843.22,5381.07 8840.19,5381.52L8784.64,5389.65C8781.97,5390.04 8779.37,5389.48 8777.2,5388.21C8774.49,5386.62 8772.44,5383.93 8771.76,5380.62C8769.18,5368.13 8766.73,5355.64 8764.22,5343.2C8762.69,5335.67 8761.15,5328.16 8759.53,5320.68C8758.4,5315.4 8757.23,5310.12 8756.01,5304.87L8678.99,5313.92C8684.25,5338.27 8689.2,5366.04 8694.43,5395.82C8695.5,5401.89 8691.57,5407.72 8685.55,5409.01C8657.97,5414.91 8632.36,5421.01 8611.69,5426.16L8629.94,5501.2L8695.64,5481.06C8698.8,5480.09 8702.22,5480.53 8705.03,5482.27C8707.84,5484.02 8709.76,5486.89 8710.3,5490.15C8710.62,5492.07 8710.93,5494.01 8711.25,5495.96C8712.46,5503.36 8713.69,5510.99 8714.94,5518.8ZM8814.76,5493.16C8820.2,5523.71 8824.19,5532.83 8824.19,5532.83L8824.18,5532.72C8823.68,5528.31 8824.27,5524.57 8825.44,5521.59L8827.43,5517.87L8830.4,5514.59L8834.15,5512.16L8838.23,5510.8C8841.38,5510.15 8845.24,5510.2 8849.71,5511.55C8868.33,5516.94 8884.1,5520.57 8898.09,5521.97C8910.36,5523.2 8925.87,5522.9 8938.68,5518.28C8948.95,5514.56 8957.45,5507.8 8958.7,5495.34C8959.22,5490.13 8958.04,5485.83 8955.76,5482.29C8950.2,5480.78 8944.56,5479.82 8939.29,5479.29C8906.46,5476.01 8861.08,5482.52 8814.76,5493.16ZM9401.99,5508.7C9379.64,5492.2 9348.98,5480.64 9309.13,5476.62L9284.97,5475.24C9216.3,5473.53 9151.85,5480.35 9097.97,5486.83L9111.97,5552.4L9115.43,5551.78C9122.6,5550.47 9130.14,5549.09 9138,5547.69C9175.35,5541.06 9219.94,5534.13 9266.21,5534.09C9266.4,5534.09 9266.6,5534.09 9266.8,5534.1L9288.27,5535.19C9288.45,5535.2 9288.64,5535.22 9288.82,5535.24C9318.36,5538.19 9339.27,5546.88 9353.04,5558.68C9367.13,5570.75 9373.76,5586.06 9374.53,5601.8C9374.69,5605.06 9374.6,5608.33 9374.28,5611.6C9371.48,5639.62 9349.92,5668.57 9315.34,5683.18C9279.61,5698.32 9226.82,5697.2 9168.54,5689.53L9185.88,5756.47C9185.93,5756.65 9186.01,5756.85 9186.08,5757.01C9186.25,5757.04 9186.46,5757.08 9186.62,5757.1L9188.41,5757.26C9196.2,5757.94 9204.26,5758.53 9212.52,5758.95C9259.65,5761.37 9313.01,5758.68 9355.95,5740.68L9355.98,5740.67C9409.06,5718.58 9443.52,5667.74 9448.65,5616.4C9449.9,5603.97 9449.42,5591.48 9447.07,5579.37C9443.4,5560.47 9435.17,5542.47 9421.78,5526.95C9416.1,5520.38 9409.52,5514.26 9401.99,5508.7ZM9485.37,5812.79C9446.65,5799.68 9446.8,5796.95 9446.8,5776.9C9446.8,5774.09 9448.05,5771.7 9449.55,5768.92C9497.89,5678.7 9531.63,5600.45 9556.58,5528.35L9525.17,5525.21C9482.81,5520.98 9484.63,5496.19 9484.63,5496.19C9484.04,5493.78 9483.81,5491.01 9484.13,5487.86L9490.69,5422.2C9491.01,5419.02 9491.79,5416.33 9492.86,5414.08L9495.26,5410.23L9498.6,5406.98L9501.74,5405.06L9505.04,5403.8C9507.77,5403.02 9510.97,5402.72 9514.64,5403.08L9587.58,5410.37C9590.74,5396.83 9593.36,5383.22 9595.98,5369.63C9596.52,5366.71 9597.45,5364.22 9598.64,5362.12L9601.14,5358.62L9604.47,5355.67L9608.41,5353.59L9612.58,5352.48C9614.92,5352.12 9617.55,5352.12 9620.4,5352.63L9695.94,5363.85C9696.05,5363.87 9696.16,5363.89 9696.26,5363.91C9700.06,5364.58 9703.13,5365.85 9705.55,5367.46L9708.4,5369.76L9710.84,5372.69C9710.84,5372.69 9727.56,5393.66 9722.74,5412.34C9721.85,5416.04 9720.96,5419.73 9720.05,5423.43L9773.59,5428.44L9773.66,5428.44C9777.43,5428.82 9780.51,5429.79 9782.98,5431.12L9785.99,5433.11C9785.99,5433.11 9802.16,5443.55 9802.16,5476.06L9796.93,5528.33C9802.31,5528.74 9807.67,5529.2 9813.01,5529.74C9845.94,5533.03 9878.61,5538.98 9912.02,5548.22C9914.87,5548.99 9917.23,5550.08 9919.19,5551.37C9919.19,5551.37 9943.45,5561.24 9936.96,5596.37L9923.31,5664.47C9922.11,5671.19 9917.68,5673.38 9911.53,5671.71C9877.25,5661.97 9846.35,5655.2 9815.09,5652.07C9785.39,5649.11 9755.9,5649.32 9722.5,5651.77C9680.62,5651.77 9681.5,5625.29 9681.5,5625.29C9680.64,5622.91 9680.14,5620.11 9680.2,5616.83L9680.63,5573.08C9667.32,5615.31 9652.17,5658.7 9634.44,5704.45L9636.73,5700.91L9639.75,5697.94L9643.17,5695.74C9645.25,5694.67 9647.64,5693.85 9650.29,5693.39L9713.34,5680.84C9716.44,5680.15 9719.19,5680.08 9721.61,5680.41L9726.02,5681.57L9730.04,5683.77C9733.64,5686.38 9736.66,5690.57 9738.53,5696.73C9738.58,5696.89 9738.63,5697.06 9738.67,5697.22C9742.17,5710.91 9751.73,5720.02 9763.34,5726.21C9776.47,5733.2 9792.18,5736.58 9806.4,5738C9832.13,5740.57 9861.94,5737.86 9895.6,5732.56C9895.71,5732.54 9895.82,5732.52 9895.93,5732.51C9899.2,5732.09 9902.11,5732.28 9904.62,5732.87C9904.62,5732.87 9932.94,5731.38 9928.22,5778.63L9928.05,5780.62C9942.98,5758.39 9969.73,5748.8 9999.69,5754.71C10032.9,5761.27 10080.5,5778.63 10064.9,5857.61C10058.4,5890.49 10030.1,5906.78 9996.69,5900.19C9928.22,5886.67 9929.88,5865.26 9922.16,5849.56L9922.07,5850.64C9921.5,5856.37 9918.48,5860.28 9912.64,5860.75C9880.7,5864.4 9847.4,5865.81 9816.14,5862.69C9779.08,5858.98 9741.04,5848.09 9712.31,5827.13C9669.03,5806.62 9635.94,5771.23 9632.5,5716.1L9632.64,5717.29L9632.32,5713.04L9632.86,5708.73L9633.92,5705.78C9617.83,5747.22 9599.62,5790.61 9578.75,5836.85C9576.04,5842.9 9571.66,5844.57 9566.09,5842.43L9485.37,5812.79ZM9889.95,5824.12L9895.78,5755.72C9861.31,5761.01 9830.67,5763.46 9804.12,5760.81C9790.98,5759.49 9776.99,5756.56 9764.05,5751.45C9747.51,5744.91 9732.7,5734.8 9723.62,5719.92C9720.61,5715 9718.24,5709.56 9716.63,5703.55L9655.44,5715.73C9656.55,5731.24 9660.49,5744.8 9666.65,5756.6C9678.76,5779.86 9699.44,5796.31 9723.82,5807.46C9746.2,5817.7 9771.7,5823.47 9796.56,5825.96C9826.81,5828.98 9859.02,5827.62 9889.95,5824.12ZM9891.78,5634.75L9904.76,5569.98C9873.04,5561.28 9842.01,5555.66 9810.73,5552.54C9803.15,5551.78 9795.53,5551.17 9787.87,5550.67C9786.91,5550.76 9785.85,5550.74 9784.7,5550.63L9780.87,5550.24C9755.78,5548.84 9730.17,5548.57 9703.78,5548.49L9703.14,5614.85C9706.35,5614.63 9709.52,5614.42 9712.66,5614.23C9720.48,5613.78 9728.1,5613.45 9735.58,5613.27C9756.23,5612.77 9775.82,5613.38 9795.5,5615.35C9826.75,5618.47 9857.65,5625.14 9891.78,5634.75ZM9580.01,5530.69C9554.74,5604.63 9520.45,5684.87 9470.92,5777.55L9548.01,5805.87C9597.55,5696.04 9631.96,5602.36 9658.69,5512.6C9660.25,5507.34 9665.34,5503.93 9670.81,5504.47L9763.62,5513.75L9769.88,5451.11L9689.07,5443.55C9685.64,5443.23 9682.54,5441.38 9680.62,5438.52C9678.7,5435.65 9678.18,5432.08 9679.18,5428.79C9680.21,5425.44 9681.18,5422.11 9682.11,5418.8C9684.22,5411.3 9686.11,5403.88 9687.93,5396.49C9688.77,5393.06 9689.6,5389.63 9690.43,5386.2L9618.19,5375.47C9614.96,5392.22 9611.7,5408.96 9607.45,5425.6C9606.05,5431.09 9600.85,5434.73 9595.21,5434.17L9513.34,5425.98L9507.08,5488.64L9576.97,5495.62C9580.42,5495.96 9583.52,5497.85 9585.42,5500.76C9586.9,5503.03 9587.52,5505.73 9587.2,5508.38C9587.11,5509.12 9586.95,5509.85 9586.72,5510.56C9584.56,5517.22 9582.32,5523.93 9580.01,5530.69ZM10023.8,5792.61C10017.1,5784.94 10007.2,5779.55 9995.25,5777.19C9968.49,5771.91 9945.17,5784.51 9939.8,5811.68C9937.08,5825.47 9940.43,5837.64 9948.09,5846.86C9954.75,5854.86 9964.66,5860.64 9976.67,5863.3C9977.17,5863.41 9977.67,5863.52 9978.18,5863.62C10004.8,5868.89 10027.7,5856.32 10032.9,5830.06C10033.3,5827.86 10033.6,5825.71 10033.8,5823.61C10034.7,5811.34 10031,5800.7 10023.8,5792.61ZM9992.51,5748.31C9951.98,5740.31 9953.13,5721.48 9953.13,5721.48L9951.98,5717.24C9951.59,5714.77 9951.61,5712.05 9952.18,5709.11L10005.3,5404.8L10005.4,5404.55C10005.9,5401.7 10006.9,5399.24 10008,5397.16L10010.5,5393.66L10013.8,5390.66L10017.9,5388.52L10022.2,5387.4C10024.6,5387.04 10027.4,5387.08 10030.5,5387.7L10110.7,5403.52C10113.8,5404.14 10116.4,5405.16 10118.5,5406.42C10118.5,5406.42 10144.8,5412.34 10137,5451.78L10070.5,5753.56C10069.3,5759.73 10065,5762.61 10058.3,5761.3L9992.51,5748.31ZM10038.8,5724.54L10104.7,5425.71L10027.6,5410.48L9974.95,5711.93L10038.8,5724.54ZM7871.06,5740.95C7781.16,5692.56 7717.4,5614.33 7701.83,5519.15C7671.53,5333.96 7834.57,5151.46 8067.38,5113.37C8287.42,5077.36 8489.5,5183.5 8536.59,5351.62C8543.95,5369.78 8549.36,5388.83 8552.61,5408.66C8582.01,5588.39 8422.46,5764.32 8196.52,5801.29C8074.13,5821.31 7957.2,5796.48 7871.06,5740.95ZM8389.17,5194.89C8305.22,5140.56 8190.71,5116.41 8071.08,5135.98C7852,5171.83 7695.93,5341.18 7724.44,5515.45C7727.6,5534.74 7732.88,5553.24 7740.07,5570.86C7765.94,5634.25 7816.57,5686.12 7882.08,5721.21C7962.88,5764.49 8066.34,5782.26 8173.94,5764.65C8393.02,5728.81 8549.09,5559.45 8520.58,5385.18C8519.09,5376.14 8517.15,5367.27 8514.76,5358.57C8496.23,5291.25 8450.98,5234.89 8389.17,5194.89ZM8245.84,5309.59C8275.85,5304.68 8305.31,5331.73 8311.56,5369.97C8317.82,5408.2 8284.98,5360.45 8254.96,5365.36C8224.94,5370.27 8209.04,5426 8202.78,5387.77C8196.53,5349.53 8215.82,5314.5 8245.84,5309.59ZM8123.17,5454.34C8264.91,5431.15 8372.34,5365.64 8379.98,5412.32C8387.61,5459 8292.58,5600.31 8150.85,5623.5C8009.11,5646.69 7874,5543.04 7866.36,5496.36C7858.72,5449.68 7981.43,5477.53 8123.17,5454.34ZM7960.76,5356.23C7990.78,5351.32 8020.23,5378.38 8026.49,5416.61C8032.74,5454.85 7999.9,5407.1 7969.89,5412.01C7939.87,5416.92 7923.96,5472.65 7917.71,5434.41C7911.45,5396.18 7930.74,5361.15 7960.76,5356.23Z" style="fill:rgb(215,119,113);"/>
                </g>
                <g transform="matrix(0.602845,0,0,0.458232,-3592.51,-1092.98)">
                    <path d="M8714.94,5518.8C8713.69,5510.99 8712.46,5503.36 8711.25,5495.96C8710.93,5494.01 8710.62,5492.07 8710.3,5490.15C8709.76,5486.89 8707.84,5484.02 8705.03,5482.27C8702.22,5480.53 8698.8,5480.09 8695.64,5481.06L8629.94,5501.2L8611.69,5426.16C8632.36,5421.01 8657.97,5414.91 8685.55,5409.01C8691.57,5407.72 8695.5,5401.89 8694.43,5395.82C8689.2,5366.04 8684.25,5338.27 8678.99,5313.92L8756.01,5304.87C8757.23,5310.12 8758.4,5315.4 8759.53,5320.68C8761.15,5328.16 8762.69,5335.67 8764.22,5343.2C8766.73,5355.64 8769.18,5368.13 8771.76,5380.62C8772.44,5383.93 8774.49,5386.62 8777.2,5388.21C8779.37,5389.48 8781.97,5390.04 8784.64,5389.65L8840.19,5381.52C8843.22,5381.07 8845.94,5379.44 8847.76,5376.97C8849.57,5374.5 8850.32,5371.41 8849.84,5368.38C8846.65,5348.33 8842.61,5326.68 8836.71,5303.82L8912.05,5295.24C8913.26,5300.59 8914.38,5305.84 8915.43,5311.01C8916.99,5318.67 8918.4,5326.17 8919.7,5333.59C8921.68,5344.93 8923.39,5356.09 8924.98,5367.35C8925.55,5371.36 8928.15,5374.65 8931.68,5376.22C8932.94,5376.78 8934.33,5377.12 8935.79,5377.19C8942.78,5377.52 8949.45,5378.38 8955.37,5379.51C8957.21,5379.87 8958.98,5380.24 8960.67,5380.64C8982.5,5385.84 9000.58,5394.41 9015.04,5405.22C9039.14,5423.23 9053.19,5447.54 9057.78,5473.4C9059.55,5483.39 9059.91,5493.6 9058.9,5503.77C9054.55,5547.24 9025.07,5589.01 8974.49,5607.6L8974.46,5607.61C8952.39,5615.78 8925.36,5618.9 8895.02,5615.86C8892.18,5615.58 8889.33,5615.24 8886.45,5614.84C8878.82,5613.78 8870.98,5612.3 8862.82,5610.39C8861.02,5609.97 8859.21,5609.53 8857.39,5609.07L8857.7,5609.15C8857.17,5609.02 8856.56,5609.14 8856.51,5608.64C8856.5,5608.55 8856.49,5608.46 8856.48,5608.38L8847.51,5534.75C8865.9,5539.93 8881.7,5543.36 8895.81,5544.77C8911.14,5546.31 8930.47,5545.61 8946.47,5539.83C8964.99,5533.13 8979.26,5520.07 8981.5,5497.62C8981.56,5497.01 8981.61,5496.41 8981.65,5495.82C8982.59,5481.68 8977.58,5470.78 8969.24,5462.54C8966.62,5459.95 8963.66,5457.62 8960.45,5455.54C8948.64,5447.89 8933.12,5443.9 8919.7,5442.56C8885.91,5439.18 8839.16,5445.71 8791.47,5456.66C8785.52,5458.03 8781.68,5463.82 8782.75,5469.84C8798.48,5558.09 8812.6,5646.71 8824.84,5728.44L8746.85,5737.88C8739.49,5680.82 8726.58,5591.87 8714.94,5518.8ZM9401.99,5508.7C9409.52,5514.26 9416.1,5520.38 9421.78,5526.95C9435.17,5542.47 9443.4,5560.47 9447.07,5579.37C9449.42,5591.48 9449.9,5603.97 9448.65,5616.4C9443.52,5667.74 9409.06,5718.58 9355.98,5740.67L9355.95,5740.68C9313.01,5758.68 9259.65,5761.37 9212.52,5758.95C9204.26,5758.53 9196.2,5757.94 9188.41,5757.26L9186.62,5757.1C9186.46,5757.08 9186.25,5757.04 9186.08,5757.01C9186.01,5756.85 9185.93,5756.65 9185.88,5756.47L9168.54,5689.53C9226.82,5697.2 9279.61,5698.32 9315.34,5683.18C9349.92,5668.57 9371.48,5639.62 9374.28,5611.6C9374.6,5608.33 9374.69,5605.06 9374.53,5601.8C9373.76,5586.06 9367.13,5570.75 9353.04,5558.68C9339.27,5546.88 9318.36,5538.19 9288.82,5535.24C9288.64,5535.22 9288.45,5535.2 9288.27,5535.19L9266.8,5534.1C9266.6,5534.09 9266.4,5534.09 9266.21,5534.09C9219.94,5534.13 9175.35,5541.06 9138,5547.69C9130.14,5549.09 9122.6,5550.47 9115.43,5551.78L9111.97,5552.4L9097.97,5486.83C9151.85,5480.35 9216.3,5473.53 9284.97,5475.24L9309.13,5476.62C9348.98,5480.64 9379.64,5492.2 9401.99,5508.7ZM9889.95,5824.12C9859.02,5827.62 9826.81,5828.98 9796.56,5825.96C9771.7,5823.47 9746.2,5817.7 9723.82,5807.46C9699.44,5796.31 9678.76,5779.86 9666.65,5756.6C9660.49,5744.8 9656.55,5731.24 9655.44,5715.73L9716.63,5703.55C9718.24,5709.56 9720.61,5715 9723.62,5719.92C9732.7,5734.8 9747.51,5744.91 9764.05,5751.45C9776.99,5756.56 9790.98,5759.49 9804.12,5760.81C9830.67,5763.46 9861.31,5761.01 9895.78,5755.72L9889.95,5824.12ZM10023.8,5792.61C10031,5800.7 10034.7,5811.34 10033.8,5823.61C10033.6,5825.71 10033.3,5827.86 10032.9,5830.06C10027.7,5856.32 10004.8,5868.89 9978.18,5863.62C9977.67,5863.52 9977.17,5863.41 9976.67,5863.3C9964.66,5860.64 9954.75,5854.86 9948.09,5846.86C9940.43,5837.64 9937.08,5825.47 9939.8,5811.68C9945.17,5784.51 9968.49,5771.91 9995.25,5777.19C10007.2,5779.55 10017.1,5784.94 10023.8,5792.61ZM9891.78,5634.75C9857.65,5625.14 9826.75,5618.47 9795.5,5615.35C9775.82,5613.38 9756.23,5612.77 9735.58,5613.27C9728.1,5613.45 9720.48,5613.78 9712.66,5614.23C9709.52,5614.42 9706.35,5614.63 9703.14,5614.85L9703.78,5548.49C9730.17,5548.57 9755.78,5548.84 9780.87,5550.24L9784.7,5550.63C9785.85,5550.74 9786.91,5550.76 9787.87,5550.67C9795.53,5551.17 9803.15,5551.78 9810.73,5552.54C9842.01,5555.66 9873.04,5561.28 9904.76,5569.98L9891.78,5634.75ZM9580.01,5530.69C9582.32,5523.93 9584.56,5517.22 9586.72,5510.56C9586.95,5509.85 9587.11,5509.12 9587.2,5508.38C9587.52,5505.73 9586.9,5503.03 9585.42,5500.76C9583.52,5497.85 9580.42,5495.96 9576.97,5495.62L9507.08,5488.64L9513.34,5425.98L9595.21,5434.17C9600.85,5434.73 9606.05,5431.09 9607.45,5425.6C9611.7,5408.96 9614.96,5392.22 9618.19,5375.47L9690.43,5386.2C9689.6,5389.63 9688.77,5393.06 9687.93,5396.49C9686.11,5403.88 9684.22,5411.3 9682.11,5418.8C9681.18,5422.11 9680.21,5425.44 9679.18,5428.79C9678.18,5432.08 9678.7,5435.65 9680.62,5438.52C9682.54,5441.38 9685.64,5443.23 9689.07,5443.55L9769.88,5451.11L9763.62,5513.75L9670.81,5504.47C9665.34,5503.93 9660.25,5507.34 9658.69,5512.6C9631.96,5602.36 9597.55,5696.04 9548.01,5805.87L9470.92,5777.55C9520.45,5684.87 9554.74,5604.63 9580.01,5530.69ZM10038.8,5724.54L9974.95,5711.93L10027.6,5410.48L10104.7,5425.71L10038.8,5724.54ZM8389.17,5194.89C8450.98,5234.89 8496.23,5291.25 8514.76,5358.57C8517.15,5367.27 8519.09,5376.14 8520.58,5385.18C8549.09,5559.45 8393.02,5728.81 8173.94,5764.65C8066.34,5782.26 7962.88,5764.49 7882.08,5721.21C7816.57,5686.12 7765.94,5634.25 7740.07,5570.86C7732.88,5553.24 7727.6,5534.74 7724.44,5515.45C7695.93,5341.18 7852,5171.83 8071.08,5135.98C8190.71,5116.41 8305.22,5140.56 8389.17,5194.89ZM8123.17,5454.34C7981.43,5477.53 7858.72,5449.68 7866.36,5496.36C7874,5543.04 8009.11,5646.69 8150.85,5623.5C8292.58,5600.31 8387.61,5459 8379.98,5412.32C8372.34,5365.64 8264.91,5431.15 8123.17,5454.34ZM7960.76,5356.23C7930.74,5361.15 7911.45,5396.18 7917.71,5434.41C7923.96,5472.65 7939.87,5416.92 7969.89,5412.01C7999.9,5407.1 8032.74,5454.85 8026.49,5416.61C8020.23,5378.38 7990.78,5351.32 7960.76,5356.23ZM8245.84,5309.59C8215.82,5314.5 8196.53,5349.53 8202.78,5387.77C8209.04,5426 8224.94,5370.27 8254.96,5365.36C8284.98,5360.45 8317.82,5408.2 8311.56,5369.97C8305.31,5331.73 8275.85,5304.68 8245.84,5309.59Z" style="fill:rgb(255,247,238);"/>
                </g>
            </g>
        </g>
    </g>
</svg>
